<svg width="260" height="73" viewBox="0 0 260 73" fill="none" xmlns="http://www.w3.org/2000/svg">
<g filter="url(#filter0_d_2512_2)">
<path d="M12 34.5C12 20.969 22.969 10 36.5 10H223.5C237.031 10 248 20.969 248 34.5C248 48.031 237.031 59 223.5 59H36.5C22.969 59 12 48.031 12 34.5Z" fill="white"/>
<path d="M12.5 34.5C12.5 21.2452 23.2452 10.5 36.5 10.5H223.5C236.755 10.5 247.5 21.2452 247.5 34.5C247.5 47.7548 236.755 58.5 223.5 58.5H36.5C23.2452 58.5 12.5 47.7548 12.5 34.5Z" stroke="#E9EAF3"/>
</g>
<g clip-path="url(#clip0_2512_2)">
<path d="M44.0009 50.999C46.7604 50.999 49 48.759 49 45.999V40.999H44.0009C41.2415 40.999 39.002 43.239 39.002 45.999C39.002 48.759 41.2415 50.999 44.0009 50.999Z" fill="#0ACF83"/>
<path d="M39.002 36C39.002 33.24 41.2415 31 44.0009 31H49V41H44.0009C41.2415 41 39.002 38.76 39.002 36Z" fill="#A259FF"/>
<path d="M39.002 26C39.002 23.24 41.2415 21 44.0009 21H49V31H44.0009C41.2415 31 39.002 28.76 39.002 26Z" fill="#F24E1E"/>
<path d="M49 21H53.999C56.7584 21 58.998 23.24 58.998 26C58.998 28.76 56.7584 31 53.999 31H49V21Z" fill="#FF7262"/>
<path d="M58.998 36C58.998 38.76 56.7584 41 53.999 41C51.2396 41 49 38.76 49 36C49 33.24 51.2396 31 53.999 31C56.7584 31 58.998 33.24 58.998 36Z" fill="#1ABCFE"/>
</g>
<path d="M72.1051 41V29.3636H79.8097V31.392H74.5653V34.1648H79.2983V36.1932H74.5653V41H72.1051ZM81.419 41V32.2727H83.8395V41H81.419ZM82.6349 31.1477C82.2751 31.1477 81.9664 31.0284 81.7088 30.7898C81.455 30.5473 81.3281 30.2576 81.3281 29.9205C81.3281 29.5871 81.455 29.3011 81.7088 29.0625C81.9664 28.8201 82.2751 28.6989 82.6349 28.6989C82.9948 28.6989 83.3016 28.8201 83.5554 29.0625C83.813 29.3011 83.9418 29.5871 83.9418 29.9205C83.9418 30.2576 83.813 30.5473 83.5554 30.7898C83.3016 31.0284 82.9948 31.1477 82.6349 31.1477ZM89.7102 44.4545C88.9261 44.4545 88.2538 44.3466 87.6932 44.1307C87.1364 43.9186 86.6932 43.6288 86.3636 43.2614C86.0341 42.8939 85.8201 42.4811 85.7216 42.0227L87.9602 41.7216C88.0284 41.8958 88.1364 42.0587 88.2841 42.2102C88.4318 42.3617 88.6269 42.483 88.8693 42.5739C89.1155 42.6686 89.4148 42.7159 89.767 42.7159C90.2936 42.7159 90.7273 42.5871 91.0682 42.3295C91.4129 42.0758 91.5852 41.6496 91.5852 41.0511V39.4545H91.483C91.3769 39.697 91.2178 39.9261 91.0057 40.142C90.7936 40.358 90.5208 40.5341 90.1875 40.6705C89.8542 40.8068 89.4564 40.875 88.9943 40.875C88.339 40.875 87.7424 40.7235 87.2045 40.4205C86.6705 40.1136 86.2443 39.6458 85.9261 39.017C85.6117 38.3845 85.4545 37.5852 85.4545 36.6193C85.4545 35.6307 85.6155 34.8049 85.9375 34.142C86.2595 33.4792 86.6875 32.983 87.2216 32.6534C87.7595 32.3239 88.3485 32.1591 88.9886 32.1591C89.4773 32.1591 89.8864 32.2424 90.2159 32.4091C90.5455 32.572 90.8106 32.7765 91.0114 33.0227C91.2159 33.2652 91.3731 33.5038 91.483 33.7386H91.5739V32.2727H93.9773V41.0852C93.9773 41.8277 93.7955 42.4489 93.4318 42.9489C93.0682 43.4489 92.5644 43.8239 91.9205 44.0739C91.2803 44.3277 90.5436 44.4545 89.7102 44.4545ZM89.7614 39.0568C90.1515 39.0568 90.4811 38.9602 90.75 38.767C91.0227 38.5701 91.2311 38.2898 91.375 37.9261C91.5227 37.5587 91.5966 37.1193 91.5966 36.608C91.5966 36.0966 91.5246 35.6534 91.3807 35.2784C91.2367 34.8996 91.0284 34.6061 90.7557 34.3977C90.483 34.1894 90.1515 34.0852 89.7614 34.0852C89.3636 34.0852 89.0284 34.1932 88.7557 34.4091C88.483 34.6212 88.2765 34.9167 88.1364 35.2955C87.9962 35.6742 87.9261 36.1117 87.9261 36.608C87.9261 37.1117 87.9962 37.5473 88.1364 37.9148C88.2803 38.2784 88.4867 38.5606 88.7557 38.7614C89.0284 38.9583 89.3636 39.0568 89.7614 39.0568ZM95.9034 41V32.2727H98.2102V33.8125H98.3125C98.4943 33.3011 98.7973 32.8977 99.2216 32.6023C99.6458 32.3068 100.153 32.1591 100.744 32.1591C101.343 32.1591 101.852 32.3087 102.273 32.608C102.693 32.9034 102.973 33.3049 103.114 33.8125H103.205C103.383 33.3125 103.705 32.9129 104.17 32.6136C104.64 32.3106 105.195 32.1591 105.835 32.1591C106.65 32.1591 107.311 32.4186 107.818 32.9375C108.33 33.4527 108.585 34.1837 108.585 35.1307V41H106.17V35.608C106.17 35.1231 106.042 34.7595 105.784 34.517C105.527 34.2746 105.205 34.1534 104.818 34.1534C104.379 34.1534 104.036 34.2936 103.79 34.5739C103.544 34.8504 103.42 35.2159 103.42 35.6705V41H101.074V35.5568C101.074 35.1288 100.951 34.7879 100.705 34.5341C100.462 34.2803 100.142 34.1534 99.7443 34.1534C99.4754 34.1534 99.233 34.2216 99.017 34.358C98.8049 34.4905 98.6364 34.678 98.5114 34.9205C98.3864 35.1591 98.3239 35.4394 98.3239 35.7614V41H95.9034ZM112.986 41.1648C112.429 41.1648 111.933 41.0682 111.497 40.875C111.062 40.678 110.717 40.3883 110.463 40.0057C110.213 39.6193 110.088 39.1383 110.088 38.5625C110.088 38.0777 110.177 37.6705 110.355 37.3409C110.533 37.0114 110.776 36.7462 111.082 36.5455C111.389 36.3447 111.738 36.1932 112.128 36.0909C112.522 35.9886 112.935 35.9167 113.366 35.875C113.874 35.822 114.283 35.7727 114.594 35.7273C114.904 35.678 115.13 35.6061 115.27 35.5114C115.41 35.4167 115.48 35.2765 115.48 35.0909V35.0568C115.48 34.697 115.366 34.4186 115.139 34.2216C114.916 34.0246 114.598 33.9261 114.185 33.9261C113.749 33.9261 113.402 34.0227 113.145 34.2159C112.887 34.4053 112.717 34.6439 112.634 34.9318L110.395 34.75C110.509 34.2197 110.732 33.7614 111.065 33.375C111.399 32.9848 111.829 32.6856 112.355 32.4773C112.885 32.2652 113.499 32.1591 114.196 32.1591C114.681 32.1591 115.145 32.2159 115.588 32.3295C116.035 32.4432 116.431 32.6193 116.776 32.858C117.124 33.0966 117.399 33.4034 117.599 33.7784C117.8 34.1496 117.901 34.5947 117.901 35.1136V41H115.605V39.7898H115.537C115.397 40.0625 115.209 40.303 114.974 40.5114C114.74 40.7159 114.457 40.8769 114.128 40.9943C113.798 41.108 113.418 41.1648 112.986 41.1648ZM113.679 39.4943C114.035 39.4943 114.349 39.4242 114.622 39.2841C114.895 39.1402 115.109 38.947 115.264 38.7045C115.42 38.4621 115.497 38.1875 115.497 37.8807V36.9545C115.421 37.0038 115.317 37.0492 115.185 37.0909C115.056 37.1288 114.91 37.1648 114.747 37.1989C114.584 37.2292 114.421 37.2576 114.259 37.2841C114.096 37.3068 113.948 37.3277 113.815 37.3466C113.531 37.3883 113.283 37.4545 113.071 37.5455C112.859 37.6364 112.694 37.7595 112.577 37.9148C112.459 38.0663 112.401 38.2557 112.401 38.483C112.401 38.8125 112.52 39.0644 112.759 39.2386C113.001 39.4091 113.308 39.4943 113.679 39.4943ZM123.527 41V29.3636H131.232V31.392H125.987V34.1648H130.72V36.1932H125.987V41H123.527ZM132.841 41V32.2727H135.261V41H132.841ZM134.057 31.1477C133.697 31.1477 133.388 31.0284 133.131 30.7898C132.877 30.5473 132.75 30.2576 132.75 29.9205C132.75 29.5871 132.877 29.3011 133.131 29.0625C133.388 28.8201 133.697 28.6989 134.057 28.6989C134.417 28.6989 134.723 28.8201 134.977 29.0625C135.235 29.3011 135.364 29.5871 135.364 29.9205C135.364 30.2576 135.235 30.5473 134.977 30.7898C134.723 31.0284 134.417 31.1477 134.057 31.1477ZM139.621 29.3636V41H137.2V29.3636H139.621ZM145.537 41.1705C144.639 41.1705 143.866 40.9886 143.219 40.625C142.575 40.2576 142.079 39.7386 141.73 39.0682C141.382 38.3939 141.207 37.5966 141.207 36.6761C141.207 35.7784 141.382 34.9905 141.73 34.3125C142.079 33.6345 142.569 33.1061 143.202 32.7273C143.838 32.3485 144.584 32.1591 145.44 32.1591C146.016 32.1591 146.552 32.2519 147.048 32.4375C147.548 32.6193 147.984 32.8939 148.355 33.2614C148.73 33.6288 149.022 34.0909 149.23 34.6477C149.438 35.2008 149.543 35.8485 149.543 36.5909V37.2557H142.173V35.7557H147.264C147.264 35.4072 147.188 35.0985 147.037 34.8295C146.885 34.5606 146.675 34.3504 146.406 34.1989C146.141 34.0436 145.832 33.9659 145.48 33.9659C145.113 33.9659 144.787 34.0511 144.503 34.2216C144.223 34.3883 144.003 34.6136 143.844 34.8977C143.685 35.178 143.603 35.4905 143.599 35.8352V37.2614C143.599 37.6932 143.679 38.0663 143.838 38.3807C144.001 38.6951 144.23 38.9375 144.526 39.108C144.821 39.2784 145.171 39.3636 145.577 39.3636C145.846 39.3636 146.092 39.3258 146.315 39.25C146.539 39.1742 146.73 39.0606 146.889 38.9091C147.048 38.7576 147.17 38.572 147.253 38.3523L149.491 38.5C149.378 39.0379 149.145 39.5076 148.793 39.9091C148.444 40.3068 147.993 40.6174 147.44 40.8409C146.891 41.0606 146.257 41.1705 145.537 41.1705ZM157.331 29.3636V41H154.871V29.3636H157.331ZM161.73 35.9545V41H159.31V32.2727H161.616V33.8125H161.719C161.912 33.3049 162.236 32.9034 162.69 32.608C163.145 32.3087 163.696 32.1591 164.344 32.1591C164.95 32.1591 165.478 32.2917 165.929 32.5568C166.38 32.822 166.73 33.2008 166.98 33.6932C167.23 34.1818 167.355 34.7652 167.355 35.4432V41H164.935V35.875C164.938 35.3409 164.802 34.9242 164.526 34.625C164.249 34.322 163.868 34.1705 163.384 34.1705C163.058 34.1705 162.77 34.2405 162.52 34.3807C162.274 34.5208 162.08 34.7254 161.94 34.9943C161.804 35.2595 161.734 35.5795 161.73 35.9545ZM173.206 41.1705C172.312 41.1705 171.543 40.9811 170.899 40.6023C170.259 40.2197 169.767 39.6894 169.422 39.0114C169.081 38.3333 168.911 37.553 168.911 36.6705C168.911 35.7765 169.083 34.9924 169.428 34.3182C169.776 33.6402 170.27 33.1117 170.911 32.733C171.551 32.3504 172.312 32.1591 173.195 32.1591C173.956 32.1591 174.623 32.2973 175.195 32.5739C175.767 32.8504 176.219 33.2386 176.553 33.7386C176.886 34.2386 177.07 34.8258 177.104 35.5H174.82C174.755 35.0644 174.585 34.714 174.308 34.4489C174.036 34.1799 173.678 34.0455 173.234 34.0455C172.859 34.0455 172.532 34.1477 172.251 34.3523C171.975 34.553 171.759 34.8466 171.604 35.233C171.448 35.6193 171.371 36.0871 171.371 36.6364C171.371 37.1932 171.446 37.6667 171.598 38.0568C171.753 38.447 171.971 38.7443 172.251 38.9489C172.532 39.1534 172.859 39.2557 173.234 39.2557C173.511 39.2557 173.759 39.1989 173.979 39.0852C174.202 38.9716 174.386 38.8068 174.53 38.5909C174.678 38.3712 174.774 38.108 174.82 37.8011H177.104C177.066 38.4678 176.884 39.0549 176.558 39.5625C176.236 40.0663 175.791 40.4602 175.223 40.7443C174.655 41.0284 173.982 41.1705 173.206 41.1705ZM181.074 29.3636V41H178.653V29.3636H181.074ZM188.609 37.2841V32.2727H191.03V41H188.706V39.4148H188.615C188.418 39.9261 188.09 40.3371 187.632 40.6477C187.178 40.9583 186.623 41.1136 185.967 41.1136C185.384 41.1136 184.871 40.9811 184.428 40.7159C183.984 40.4508 183.638 40.0739 183.388 39.5852C183.142 39.0966 183.017 38.5114 183.013 37.8295V32.2727H185.433V37.3977C185.437 37.9129 185.575 38.3201 185.848 38.6193C186.121 38.9186 186.486 39.0682 186.945 39.0682C187.236 39.0682 187.509 39.0019 187.763 38.8693C188.017 38.733 188.221 38.5322 188.376 38.267C188.536 38.0019 188.613 37.6742 188.609 37.2841ZM196.182 41.142C195.519 41.142 194.919 40.9716 194.381 40.6307C193.847 40.286 193.422 39.7803 193.108 39.1136C192.797 38.4432 192.642 37.6212 192.642 36.6477C192.642 35.6477 192.803 34.8163 193.125 34.1534C193.447 33.4867 193.875 32.9886 194.409 32.6591C194.947 32.3258 195.536 32.1591 196.176 32.1591C196.665 32.1591 197.072 32.2424 197.398 32.4091C197.727 32.572 197.992 32.7765 198.193 33.0227C198.398 33.2652 198.553 33.5038 198.659 33.7386H198.733V29.3636H201.148V41H198.761V39.6023H198.659C198.545 39.8447 198.384 40.0852 198.176 40.3239C197.972 40.5587 197.705 40.7538 197.375 40.9091C197.049 41.0644 196.652 41.142 196.182 41.142ZM196.949 39.2159C197.339 39.2159 197.669 39.1098 197.938 38.8977C198.21 38.6818 198.419 38.3807 198.562 37.9943C198.71 37.608 198.784 37.1553 198.784 36.6364C198.784 36.1174 198.712 35.6667 198.568 35.2841C198.424 34.9015 198.216 34.6061 197.943 34.3977C197.67 34.1894 197.339 34.0852 196.949 34.0852C196.551 34.0852 196.216 34.1932 195.943 34.4091C195.67 34.625 195.464 34.9242 195.324 35.3068C195.184 35.6894 195.114 36.1326 195.114 36.6364C195.114 37.1439 195.184 37.5928 195.324 37.983C195.468 38.3693 195.674 38.6723 195.943 38.892C196.216 39.108 196.551 39.2159 196.949 39.2159ZM207.115 41.1705C206.217 41.1705 205.445 40.9886 204.797 40.625C204.153 40.2576 203.657 39.7386 203.308 39.0682C202.96 38.3939 202.786 37.5966 202.786 36.6761C202.786 35.7784 202.96 34.9905 203.308 34.3125C203.657 33.6345 204.147 33.1061 204.78 32.7273C205.416 32.3485 206.162 32.1591 207.018 32.1591C207.594 32.1591 208.13 32.2519 208.626 32.4375C209.126 32.6193 209.562 32.8939 209.933 33.2614C210.308 33.6288 210.6 34.0909 210.808 34.6477C211.017 35.2008 211.121 35.8485 211.121 36.5909V37.2557H203.751V35.7557H208.842C208.842 35.4072 208.767 35.0985 208.615 34.8295C208.464 34.5606 208.253 34.3504 207.984 34.1989C207.719 34.0436 207.411 33.9659 207.058 33.9659C206.691 33.9659 206.365 34.0511 206.081 34.2216C205.801 34.3883 205.581 34.6136 205.422 34.8977C205.263 35.178 205.181 35.4905 205.178 35.8352V37.2614C205.178 37.6932 205.257 38.0663 205.416 38.3807C205.579 38.6951 205.808 38.9375 206.104 39.108C206.399 39.2784 206.75 39.3636 207.155 39.3636C207.424 39.3636 207.67 39.3258 207.893 39.25C208.117 39.1742 208.308 39.0606 208.467 38.9091C208.626 38.7576 208.748 38.572 208.831 38.3523L211.07 38.5C210.956 39.0379 210.723 39.5076 210.371 39.9091C210.022 40.3068 209.571 40.6174 209.018 40.8409C208.469 41.0606 207.835 41.1705 207.115 41.1705ZM215.916 41.142C215.253 41.142 214.653 40.9716 214.115 40.6307C213.581 40.286 213.157 39.7803 212.842 39.1136C212.532 38.4432 212.376 37.6212 212.376 36.6477C212.376 35.6477 212.537 34.8163 212.859 34.1534C213.181 33.4867 213.609 32.9886 214.143 32.6591C214.681 32.3258 215.27 32.1591 215.911 32.1591C216.399 32.1591 216.806 32.2424 217.132 32.4091C217.462 32.572 217.727 32.7765 217.928 33.0227C218.132 33.2652 218.287 33.5038 218.393 33.7386H218.467V29.3636H220.882V41H218.496V39.6023H218.393C218.28 39.8447 218.119 40.0852 217.911 40.3239C217.706 40.5587 217.439 40.7538 217.109 40.9091C216.784 41.0644 216.386 41.142 215.916 41.142ZM216.683 39.2159C217.073 39.2159 217.403 39.1098 217.672 38.8977C217.945 38.6818 218.153 38.3807 218.297 37.9943C218.445 37.608 218.518 37.1553 218.518 36.6364C218.518 36.1174 218.446 35.6667 218.303 35.2841C218.159 34.9015 217.95 34.6061 217.678 34.3977C217.405 34.1894 217.073 34.0852 216.683 34.0852C216.286 34.0852 215.95 34.1932 215.678 34.4091C215.405 34.625 215.198 34.9242 215.058 35.3068C214.918 35.6894 214.848 36.1326 214.848 36.6364C214.848 37.1439 214.918 37.5928 215.058 37.983C215.202 38.3693 215.409 38.6723 215.678 38.892C215.95 39.108 216.286 39.2159 216.683 39.2159Z" fill="#0B0E2C"/>
<defs>
<filter id="filter0_d_2512_2" x="0" y="0" width="260" height="73" filterUnits="userSpaceOnUse" color-interpolation-filters="sRGB">
<feFlood flood-opacity="0" result="BackgroundImageFix"/>
<feColorMatrix in="SourceAlpha" type="matrix" values="0 0 0 0 0 0 0 0 0 0 0 0 0 0 0 0 0 0 127 0" result="hardAlpha"/>
<feOffset dy="2"/>
<feGaussianBlur stdDeviation="6"/>
<feColorMatrix type="matrix" values="0 0 0 0 0.0431373 0 0 0 0 0.0862745 0 0 0 0 0.172549 0 0 0 0.05 0"/>
<feBlend mode="normal" in2="BackgroundImageFix" result="effect1_dropShadow_2512_2"/>
<feBlend mode="normal" in="SourceGraphic" in2="effect1_dropShadow_2512_2" result="shape"/>
</filter>
<clipPath id="clip0_2512_2">
<rect width="20" height="30" fill="white" transform="translate(39 21)"/>
</clipPath>
</defs>
</svg>
